<svg xmlns="http://www.w3.org/2000/svg" viewBox="0 0 85.07 54.92"><defs><style>.cls-1{fill:none;stroke:#000;stroke-miterlimit:10;stroke-width:4px;}</style></defs><title>arrow_tr_left_1</title><g id="Layer_2" data-name="Layer 2"><g id="Layer_1-2" data-name="Layer 1"><path class="cls-1" d="M83.07,18.8V36.13c0,1.57-.9,2.84-2,2.84H54.54A2.83,2.83,0,0,0,51.7,41.8v9.37a2,2,0,0,1-2.93,1.52L25.88,40.84,3,29a1.67,1.67,0,0,1,0-3L25.88,14.1,48.77,2.24A2,2,0,0,1,51.7,3.76v9.37A2.84,2.84,0,0,0,54.54,16H81C82.17,16,83.07,17.24,83.07,18.8Z"/></g></g></svg>