<svg xmlns="http://www.w3.org/2000/svg" viewBox="0 0 84.07 53.92"><defs><style>.cls-1{fill:none;stroke:#000;stroke-miterlimit:10;stroke-width:3px;}</style></defs><title>arrow_tr_right</title><g id="Layer_2" data-name="Layer 2"><g id="Layer_1-2" data-name="Layer 1"><path class="cls-1" d="M81.6,28.48,58.7,40.34,35.8,52.19a2,2,0,0,1-2.93-1.52V41.3A2.83,2.83,0,0,0,30,38.47H3.54c-1.13,0-2-1.27-2-2.84V18.3c0-1.56.91-2.83,2-2.83H30a2.84,2.84,0,0,0,2.83-2.84V3.26A2,2,0,0,1,35.8,1.74L58.7,13.6,81.6,25.45A1.66,1.66,0,0,1,81.6,28.48Z"/></g></g></svg>