<svg xmlns="http://www.w3.org/2000/svg" viewBox="0 0 84.07 53.92"><defs><style>.cls-1{fill:none;stroke:#000;stroke-miterlimit:10;stroke-width:3px;}</style></defs><title>arrow_tr_left</title><g id="Layer_2" data-name="Layer 2"><g id="Layer_1-2" data-name="Layer 1"><path class="cls-1" d="M82.57,18.3V35.63c0,1.57-.9,2.84-2,2.84H54A2.83,2.83,0,0,0,51.2,41.3v9.37a2,2,0,0,1-2.93,1.52L25.38,40.34,2.47,28.48a1.67,1.67,0,0,1,0-3L25.38,13.6,48.27,1.74A2,2,0,0,1,51.2,3.26v9.37A2.84,2.84,0,0,0,54,15.47H80.53C81.67,15.47,82.57,16.74,82.57,18.3Z"/></g></g></svg>