<svg xmlns="http://www.w3.org/2000/svg" viewBox="0 0 85.07 54.92"><defs><style>.cls-1{fill:none;stroke:#000;stroke-miterlimit:10;stroke-width:4px;}</style></defs><title>arrow_tr_right_1</title><g id="Layer_2" data-name="Layer 2"><g id="Layer_1-2" data-name="Layer 1"><path class="cls-1" d="M82.1,29,59.2,40.84,36.3,52.69a2,2,0,0,1-2.93-1.52V41.8A2.83,2.83,0,0,0,30.54,39H4c-1.13,0-2-1.27-2-2.84V18.8C2,17.24,2.91,16,4,16h26.5a2.84,2.84,0,0,0,2.83-2.84V3.76A2,2,0,0,1,36.3,2.24L59.2,14.1,82.1,26A1.66,1.66,0,0,1,82.1,29Z"/></g></g></svg>