<svg xmlns="http://www.w3.org/2000/svg" viewBox="0 0 519.67 317.12"><defs><style>.cls-1{fill:#231f20;}.cls-2{fill:#bcbec0;}.cls-3{fill:#58595b;}.cls-4{fill:#fff;}.cls-5{fill:#808285;}.cls-6{fill:#414042;}.cls-7{fill:#939598;}.cls-8{fill:none;stroke:#231f20;stroke-miterlimit:10;stroke-width:0.75px;}</style></defs><title>click_1</title><g id="Layer_2" data-name="Layer 2"><g id="Layer_3" data-name="Layer 3"><path class="cls-1" d="M519.92,116.48a2.67,2.67,0,0,1-.38,1.23l-.42.76-.82,1.5-3,6.41-2.93,6.06-1.43,2.67.24.16a2.69,2.69,0,0,1,1.11,3.65l-26.88,50a2.65,2.65,0,0,1-1.26,1.19L470,196.43a1.51,1.51,0,0,1-.13.41l-7,13a1.42,1.42,0,0,1-1.92.57L458.26,209c-34.19,46.88-83.7,43.62-111.52,35.85-36.58-10.22-65.46-46.34-67.72-49.21l0,0c-.67.43-1.34.87-2,1.33s-1.42,1-2.1,1.55l-1.6,1.28-.12.08-1.5-1.83c1.31-1,2.63-2,4-3,.68-.48,1.39-.91,2.11-1.35l1.08-.64.52-.32.07-1.35,1.79.11a21.65,21.65,0,0,0,5.27-5.53l0-.05,0,0,4.35-5.69-2.74-.33c-1.23-.17-2.47-.36-3.7-.52l-.86-.13.12-.82c.18-1.36.4-2.71.63-4.07l1.37.23c-.07,1.05-.14,2.11-.23,3.16,1,.08,1.92.16,2.89.26l2.81.3c.52-2.49,1.11-5,1.66-7.44q.63-2.65,1.31-5.29l1.53.27c-.32,1.82-.66,3.62-1,5.42-.59,2.77-1.12,5.56-1.77,8.32v.05a1,1,0,0,1,0,1.13L290.54,184c3.24,4.72,20.17,27.69,52.09,42.24,29.84,13.59,82.09,10.69,104.17-23.45l-2.25-1.21a1.4,1.4,0,0,1-.57-1.91l7-13a2.34,2.34,0,0,1,.26-.34l-2.48-15.26a2.73,2.73,0,0,1,.29-1.71l26.86-50a2.7,2.7,0,0,1,3.66-1.09l.3-.17.48-.93,3.28-5.53,3.68-6.07,1.59-3.06.4-.76.23-.43a2.3,2.3,0,0,1,.47-.56,2.41,2.41,0,0,1,2.74-.32c8.12,4.33,16.27,8.58,24.36,13l1.52.82.18.11a2.59,2.59,0,0,1,.28.2,1.67,1.67,0,0,1,.5.56A2.24,2.24,0,0,1,519.92,116.48Zm-1.77.48a.42.42,0,0,0,.05-.41.44.44,0,0,0-.23-.22c-.13,0-.05,0-.4-.17l-1.52-.8c-8.13-4.32-16.18-8.77-24.26-13.16a.44.44,0,0,0-.48,0l-.08.1-.18.35-.42.74-1.67,3-3.35,6-3.35,6-.51.91L509,134.1l1.44-2.67,3.27-6.08,3.22-6.1.8-1.52Z" transform="translate(-0.25 -0.25)"/><path class="cls-2" d="M518.2,116.55a.42.42,0,0,1-.05.41l-.4.77-.8,1.52-3.22,6.1-3.27,6.08L509,134.1l-27.27-14.66.51-.91,3.35-6,3.35-6,1.67-3,.42-.74.18-.35.08-.1a.44.44,0,0,1,.48,0c8.08,4.39,16.13,8.84,24.26,13.16l1.52.8c.35.19.27.13.4.17A.44.44,0,0,1,518.2,116.55Zm-6.3,6.12a.28.28,0,0,0-.11-.39l-6.22-3.34a.3.3,0,0,0-.39.12l-2.28,4.26a.27.27,0,0,0,.12.38l6.21,3.34a.3.3,0,0,0,.39-.11Zm-15.51-8.34a.29.29,0,0,0-.11-.39l-6.22-3.34a.28.28,0,0,0-.38.12L487.39,115a.27.27,0,0,0,.11.38l6.22,3.34a.28.28,0,0,0,.38-.11Z" transform="translate(-0.25 -0.25)"/><path class="cls-3" d="M511.79,122.28a.28.28,0,0,1,.11.39l-2.28,4.26a.3.3,0,0,1-.39.11L503,123.7a.27.27,0,0,1-.12-.38l2.28-4.26a.3.3,0,0,1,.39-.12Z" transform="translate(-0.25 -0.25)"/><path class="cls-3" d="M496.28,113.94a.29.29,0,0,1,.11.39l-2.29,4.26a.28.28,0,0,1-.38.11l-6.22-3.34a.27.27,0,0,1-.11-.38l2.29-4.26a.28.28,0,0,1,.38-.12Z" transform="translate(-0.25 -0.25)"/><path class="cls-1" d="M299.72,153.77a14.65,14.65,0,0,1-3.08,9.72v0a.9.9,0,0,1-.19.15,2.44,2.44,0,0,1-.52,1c-.07.41-.15.83-.22,1.24l-1.53-.27a8.62,8.62,0,0,1-3,.09,22.59,22.59,0,0,1-2.77-.52c-.53-.13-1.06-.29-1.58-.45l-.95,8.77-.12,1.14,0,0-1.37-.23a.9.9,0,0,1,0-.16,46.17,46.17,0,0,0-6.21-1.1c-2.21-.27-4.44-.48-6.68-.66-4.47-.4-9-.69-13.45-.95l-13.47-.73-13.48-.63h0l-.11,0h-.77c-4.58,0-9.19.09-13.78.29s-9.17.5-13.74.92a163.39,163.39,0,0,0-26.76,4.47l-1.88,17.76q13.11-1.29,26.22-2c9.1-.52,18.19-.9,27.3-1.07q7.81-.18,15.62-.18A53.27,53.27,0,0,0,231,184.59,7.37,7.37,0,0,1,229.1,179c.7-8.2,8.61-5.07,8.61-5.07a59.67,59.67,0,0,1,23.54,16.66c6.07.18,12.16.49,18.21.86l-.07,1.35c-3.63-.13-7.25-.31-10.89-.35l-5.83-.13a54.4,54.4,0,0,1,5.6,8.68c1.1-1,2.21-2,3.38-2.92l1.5,1.83q-1.93,1.63-3.76,3.39a55.89,55.89,0,0,1,4.42,15.3l.2-.19a11.76,11.76,0,0,0,3-4.32,10.51,10.51,0,0,0,.54-5.14,15.58,15.58,0,0,0-1.72-5.18,22.38,22.38,0,0,0-2.53-3.94l1.6-1.28a24.11,24.11,0,0,1,3.06,4,18.09,18.09,0,0,1,2.3,5.93,12.61,12.61,0,0,1-.54,6.57,14.67,14.67,0,0,1-3.58,5.45,21,21,0,0,1-1.9,1.63c.05.66.12,1.31.16,2,2.36,44.48-30.47,65.33-48.16,73.1s-41.12,11.15-64.53-4.07c-11.07-7.2-16.38-18.79-18-22.93a1.54,1.54,0,0,1-.77.74l-.25.11a6.74,6.74,0,0,0-1.27.85,17.11,17.11,0,0,0-1.48,1.28c-1,.91-1.94,1.91-2.88,2.92-1.91,2-3.8,4.11-5.74,6.18s-3.87,4.14-6.11,6.16a24.6,24.6,0,0,1-4.78,3.29c0,.2.09.4.11.6a12.15,12.15,0,0,1,0,3.19,21.39,21.39,0,0,1-1.72,5.73,23.23,23.23,0,0,1-7.53,9.13,26.64,26.64,0,0,1-5.19,2.89c-.47.19-.93.37-1.41.53s-1,.33-1.44.44l-2.68.75a81.22,81.22,0,0,1-11.11,2,75.62,75.62,0,0,1-11.26.3A85.48,85.48,0,0,1,67,316.06a105.78,105.78,0,0,1-21.52-6.17,126.15,126.15,0,0,1-19.83-10.26,107.33,107.33,0,0,1-9.15-6.48,56.06,56.06,0,0,1-8.24-7.86,35.25,35.25,0,0,1-6.14-9.87,26.2,26.2,0,0,1-1.56-5.74,20.3,20.3,0,0,1-.1-6,18.27,18.27,0,0,1,1.72-5.86c.24-.46.51-.9.76-1.36l.83-1.21c.26-.41.57-.79.87-1.18a12.39,12.39,0,0,1,.93-1.13,23.61,23.61,0,0,1,4.35-4,19.32,19.32,0,0,1,2.61-1.52c.26-.12.54-.23.81-.33a30.17,30.17,0,0,1-.9-4.94,35.06,35.06,0,0,1,0-7.8c.09-1.29.34-2.55.53-3.81s.49-2.51.85-3.73a63.06,63.06,0,0,1,2.31-7.21,94.19,94.19,0,0,1,6.41-13,89.66,89.66,0,0,1,.18-13.82A98.2,98.2,0,0,1,25,178.6a78.16,78.16,0,0,1,11.36-26.32c5.36-7.69,10.43-15.51,15.44-23.41s9.73-15.61,14.49-23.46a139.38,139.38,0,0,1,6.91-30.49c-3.63-17.34,1.1-31.53,3.5-36.25,12-23.55,38.12-32.09,57.42-27.64a110.88,110.88,0,0,1,19.23-7.61A80.38,80.38,0,0,1,171.1.33a53.81,53.81,0,0,1,9.14.27,35.05,35.05,0,0,1,4.59.81A25.25,25.25,0,0,1,189.39,3a42.44,42.44,0,0,1,8,4.73,28.92,28.92,0,0,1,6.56,6.81,20.92,20.92,0,0,1,3.42,9.08,22.8,22.8,0,0,1-1,9.54,30.5,30.5,0,0,1-1.69,4.38c-.33.69-.7,1.38-1.05,2.06s-.81,1.39-1.26,2.05a23,23,0,0,1-5.12,5.3L212.34,79c.55.29,1.11.6,1.65.91a74.5,74.5,0,0,1,8.73,5.94c1.41,1.07,2.74,2.23,4.07,3.39s2.56,2.31,3.86,3.49a80.24,80.24,0,0,1,13.84,15.94,50,50,0,0,1,4.51,8.95,83.09,83.09,0,0,1,16.78,3.57,45,45,0,0,1,8.94,4c2.74,1.73,5.31,3.48,7.9,5.39,5.07,3.85,10.05,8.09,13.67,13.71A20.58,20.58,0,0,1,299.72,153.77ZM295.11,161a11.7,11.7,0,0,0,1.36-7,17.32,17.32,0,0,0-3.23-7.8,42.56,42.56,0,0,0-5.95-6.69,81.13,81.13,0,0,0-7.06-5.82c-2.45-1.83-5-3.62-7.58-5.25a45.64,45.64,0,0,0-8.09-3.86,82.69,82.69,0,0,0-8.79-2.7c-1.89-.51-3.82-1-5.73-1.34a42.71,42.71,0,0,1,1.67,8.18c.09.89.15,1.8.2,2.69a14.27,14.27,0,0,1-.15,3,20.08,20.08,0,0,1-1.64,5.49,17.29,17.29,0,0,1-2.75,4.13l11.79,1.21L266,146c.58.07,1.11.1,1.74.22a13.2,13.2,0,0,1,1.77.48,20.68,20.68,0,0,1,3.26,1.44c1,.56,2.05,1.21,3,1.85a25.93,25.93,0,0,0,2.83,1.67c1,.52,2,.92,3.06,1.36l3.16,1.3,3.16,1.3.79.33a6.84,6.84,0,0,1,.88.41,7.93,7.93,0,0,1,1.55,1.13Zm-.65,2.23a.48.48,0,0,1-.07-.2l-4.55-4.1a5.73,5.73,0,0,0-1.2-.89,5.82,5.82,0,0,0-.66-.32l-.79-.32L284,156.07l-1.76-.72c.16.17.32.35.47.53a22.58,22.58,0,0,1,2.39,3.45,24.15,24.15,0,0,1,1.58,3.28c.71.24,1.45.46,2.19.64a19,19,0,0,0,2.51.46,6.83,6.83,0,0,0,2.32-.05,1.52,1.52,0,0,0,.68-.34S294.43,163.26,294.46,163.23Zm-10.33,9,1-7.94c-3.38-.72-6.93-1.19-10.43-1.59-3.77-.41-7.56-.77-11.35-1s-7.6-.44-11.4-.63l-5.7-.2-5.71-.15h0a.64.64,0,0,1,0-1.28h5.73l5.73.06c3.82.08,7.64.22,11.46.44s7.64.48,11.45.89c3.26.36,6.49.76,9.76,1.41-.3-.69-.62-1.37-1-2a25.11,25.11,0,0,0-2.15-3.29,17.44,17.44,0,0,0-3.24-3.24c-.19-.11-.4-.19-.6-.29a28.79,28.79,0,0,1-3-1.82,31.68,31.68,0,0,0-2.81-1.8,21.25,21.25,0,0,0-3-1.37,12.91,12.91,0,0,0-3.18-.66l-6.78-.83-12.74-1.64a17,17,0,0,1-4.11,2.81,22.82,22.82,0,0,1-11,2,23.64,23.64,0,0,1-9.11-2.62,26.12,26.12,0,0,1,6.6,6.42,16.44,16.44,0,0,1,2.36,4.9,17,17,0,0,1,.67,5.39c0,.45-.06.91-.1,1.36l-.15,1.29-.23,2.1c4.5.05,9,.07,13.49.22s9,.27,13.53.51,9,.5,13.5.88c2.26.2,4.5.43,6.76.72A50.86,50.86,0,0,1,284.13,172.18ZM198.91,291.74c40.06-4.41,66.68-35.1,66-64.8,0-.34,0-.66-.05-1l-.16,0a18.62,18.62,0,0,1-6.32-.68,22.07,22.07,0,0,1-4.74-2.08c-.59,1-1.16,1.93-1.75,2.89a46.62,46.62,0,0,1-2.79,4.22,37.41,37.41,0,0,1-15.72,12.4c-3.33,1.82-6.66,3.41-10.06,4.95-1.69.79-3.42,1.5-5.13,2.26s-3.45,1.43-5.19,2.12c-7,2.74-14,5.23-21.16,7.39s-14.39,4.05-21.69,5.64c-4.92,1.06-9.84,2-14.76,2.93,0,0,0,.05,0,.08C163.33,284.41,180.91,293.72,198.91,291.74Zm65.56-68.53.23,0a42.14,42.14,0,0,0-2.86-11.6c-.63.79-1.27,1.58-1.88,2.4q-2.74,3.65-5.19,7.5A20.25,20.25,0,0,0,259,222.9,15.68,15.68,0,0,0,264.47,223.21Zm-6.56-10.81q1.35-1.74,2.77-3.43A45.54,45.54,0,0,0,246,192.18c-6.14,0-12.27.09-18.41.26-9.07.23-18.16.54-27.24,1s-18.15,1.06-27.18,1.86l-.32,0c-3.62,1.94-7.2,4-10.73,6.13-3.71,2.22-7.38,4.5-11,6.88a223.88,223.88,0,0,0-20.84,15.34,109.94,109.94,0,0,0-18,18.39,50.56,50.56,0,0,0-6.39,11,27.82,27.82,0,0,0-2.21,11.28l1,.54c6.44,3.2,13.82,4.16,21.09,4.05a143,143,0,0,0,21.9-2.49c7.29-1.32,14.62-2.7,21.82-4.27s14.37-3.52,21.45-5.64S205.07,252,212,249.32c1.73-.66,3.43-1.38,5.14-2.08s3.4-1.44,5.07-2.21c3.37-1.5,6.72-3.11,9.9-4.83l.1-.06.07,0a35,35,0,0,0,14.7-11.44,42.36,42.36,0,0,0,2.65-3.94c.87-1.4,1.7-2.83,2.62-4.21Q254.89,216.34,257.91,212.4Zm-17.43-67.76c5.5-2.64,8.44-9.23,7.28-15.45a43.54,43.54,0,0,0-6.58-18.47,62.93,62.93,0,0,0-6-8c-2.22-2.51-4.62-4.92-7.08-7.28-1.23-1.18-2.49-2.41-3.74-3.54s-2.48-2.26-3.81-3.3a73.19,73.19,0,0,0-8.24-5.86A71.25,71.25,0,0,0,203.34,78c-1.55-.68-3.1-1.32-4.69-1.87a45.82,45.82,0,0,0-4.77-1.42l-.08,0a1.28,1.28,0,0,1,.51-2.51,44.54,44.54,0,0,1,4.59,1.1,27.56,27.56,0,0,0-4.59-2.5,26.31,26.31,0,0,0-10.26-2.32,19.92,19.92,0,0,0-9.9,2.39,20.83,20.83,0,0,0-4.15,3c-1.43,1.34-2.92,2.6-4.44,3.79-3.05,2.35-6.24,4.46-9.46,6.5-.9.57-1.81,1.11-2.72,1.67a51.92,51.92,0,0,0-2.56,11.35c-1.06,8.11-4.6,14-9.3,18a78,78,0,0,1,16.64,7.15c1.38.87,2.81,1.66,4.13,2.61l2,1.38,1.95,1.46c.33.25.65.52,1,.78.8-.27,1.6-.5,2.39-.78l1.32-.49a11.21,11.21,0,0,0,1.29-.52c.43-.19.85-.38,1.29-.55s.82-.43,1.24-.64c.84-.38,1.59-.9,2.39-1.36a27.86,27.86,0,0,0,4.28-3.43,24.81,24.81,0,0,0,2.9-3.44l-1.07-.75a54.93,54.93,0,0,1-9.25-8.72,39.67,39.67,0,0,1-6.36-11,.74.74,0,0,1,.42-1,.76.76,0,0,1,.9.28l0,.09a54.11,54.11,0,0,0,3.24,5.13l.87,1.23a10.59,10.59,0,0,0,.93,1.19l2,2.29a66.5,66.5,0,0,0,9,8.06,95.09,95.09,0,0,0,10.26,6.57c1.79,1,3.6,1.93,5.44,2.82.81.42,1.64.8,2.47,1.18-.64-1-1.28-2-2-2.9a53.63,53.63,0,0,0-6.61-7.65,1,1,0,0,1,1.34-1.49c5.41,4.56,9.45,10.49,13.13,16.32l2.78,4.32a45.07,45.07,0,0,0,3,4,28.48,28.48,0,0,0,7.41,6.3,20.41,20.41,0,0,0,9,2.7A19.2,19.2,0,0,0,240.48,144.64Zm-10.83,21.91.15-1.29c0-.41.09-.82.09-1.22a15.38,15.38,0,0,0-.57-4.86,14.53,14.53,0,0,0-2.09-4.41,26.07,26.07,0,0,0-3.3-3.76,28.12,28.12,0,0,0-8.38-5.5,31.88,31.88,0,0,0-9.05-2.44l-3.05.91c-2.15.62-4.29,1.23-6.46,1.83a.63.63,0,0,1-.5-.09l-.7-.15c-3.18-.7-6.36-1.46-9.49-2.27s-6.21-1.62-9.21-2.41a1,1,0,0,1,0-.64l.07-.15.11-.23.22-.46h0A48.58,48.58,0,0,0,169,141a33.11,33.11,0,0,0-4.77,1.64,22.7,22.7,0,0,0-4.33,2.39l-1,.72-1.06.84c-.71.55-1.45,1.05-2.18,1.56-1.49,1-3,1.92-4.57,2.8a70.24,70.24,0,0,1-9.7,4.52l-.09,0-.14,0-5.24,1c-1.75.36-3.48.79-5.21,1.17-.22.07-.44.12-.66.18.92,0,1.84-.06,2.76-.07a108.54,108.54,0,0,1,14.64,1c4.85.62,9.66,1.49,14.43,2.55s9.23,2.2,13.79,3.64q7.22-.75,14.42-1.38,3.62-.33,7.23-.6c2.43-.17,4.84-.35,7.29-.35a.46.46,0,0,1,0,.91h0c-2.38.08-4.78.34-7.18.6s-4.79.55-7.19.84q-6.79.89-13.59,1.85l-.26,6.89c4.07-1.11,8.21-1.95,12.35-2.65,4.58-.72,9.19-1.22,13.8-1.64s9.22-.67,13.84-.86c4.35-.16,8.7-.24,13.08-.2Zm-13.53-22.39c.95.39,1.87.85,2.8,1.33a31.68,31.68,0,0,1-5.62-5.15l-.85-.13c-.7-.13-1.4-.28-2.07-.43.06.44.12.87.15,1.3l.07.77-.73.21-.38.12A33.28,33.28,0,0,1,216.12,144.16ZM210,138.1a7.73,7.73,0,0,1,1.52,0c-.75-1-1.47-2-2.13-3.09-1-1.49-1.8-3-2.68-4.47-.64-1.1-1.3-2.19-2-3.27a64.16,64.16,0,0,1-10.68-4.1c-.72-.34-1.41-.72-2.11-1.08-1,.23-2.06.47-3.08.73-1.42.39-2.85.78-4.25,1.25s-2.8,1-4.19,1.48a20.86,20.86,0,0,1-1.69,1.23,24.47,24.47,0,0,1-5.57,2.63,27.29,27.29,0,0,1-2.95.79l-.94.13q2,1.76,4,3.63c.35,0,.7,0,1.06,0,.7,0,1.38.12,2.07.19l2,.39.55.1.1.52c.09.45.16.91.24,1.36a16.63,16.63,0,0,1,2.47-2.71,11.07,11.07,0,0,1,3.58-2.18c.2-.08.4-.13.6-.19.41-.18.81-.36,1.22-.51a20.26,20.26,0,0,1,4-1.07,20.75,20.75,0,0,1,4.16-.19c1.34.06,2.69.17,4,.36a19.89,19.89,0,0,1,4.08,1,10.54,10.54,0,0,1,3.71,2.25,9.91,9.91,0,0,1,2.43,3.65C209.78,137.31,209.9,137.71,210,138.1ZM203,142.38l5.6-1.87a9.41,9.41,0,0,0-2.7-5.8,12.41,12.41,0,0,0-6.72-2.78c-1.27-.2-2.57-.29-3.9-.41a19.31,19.31,0,0,0-3.8,0l-.12,0c.16.07.33.13.47.2a7.5,7.5,0,0,1,1.83,1.25,9.52,9.52,0,0,1,2.43,3.55,17.42,17.42,0,0,1,.94,7.86C199,143.74,201,143.05,203,142.38Zm-7.87,1.06a15.71,15.71,0,0,0-.88-6.11,7.6,7.6,0,0,0-1.9-2.85,5.65,5.65,0,0,0-1.35-1l-.37-.16a.53.53,0,0,0-.15-.05l-.22-.05-.85-.19a8,8,0,0,0-6.48,2,18,18,0,0,0-2.58,2.65c-.13.17-.24.35-.36.52,0,0,0,0,0,0a1,1,0,0,1-.68.9.24.24,0,0,0-.06.09l-.51.8-.17.3,8.83,1.55C190,142.4,192.53,142.9,195.08,143.44Zm7.15-111.57a18.72,18.72,0,0,0,.75-7.76A16.46,16.46,0,0,0,200.22,17c-3-4.33-7.7-7.56-12.72-9.85a26.15,26.15,0,0,0-7.79-1.87,52.78,52.78,0,0,0-8.35-.18,75.09,75.09,0,0,0-16.69,3,116.22,116.22,0,0,0-30.94,14.6,167.48,167.48,0,0,0-13.94,10.21A119.78,119.78,0,0,0,97.15,44.42,90.08,90.08,0,0,0,85.1,60.66c0,1.6.07,3.15.17,4.68,1.07,18.19,8.21,24.8,18,33.53,9,8,16.9,10.46,22.23,10.59-.22-.55-.42-1.1-.6-1.67a27.94,27.94,0,0,1-1-6.36,30.16,30.16,0,0,1,.42-6.37,40.18,40.18,0,0,1,1.48-6.17A59,59,0,0,1,131,77.48,67.51,67.51,0,0,1,136.14,70a26.3,26.3,0,0,1-4.35.17A24.12,24.12,0,0,1,125,68.72a26,26,0,0,1-6-3.33.74.74,0,0,1-.16-1,.73.73,0,0,1,.94-.22h0a27.92,27.92,0,0,0,5.91,2.47,24.84,24.84,0,0,0,6.22.88,30.18,30.18,0,0,0,12.25-2.83A56.39,56.39,0,0,0,155.18,58a96.51,96.51,0,0,0,8.06-7c-1.17-.34-2.34-.7-3.48-1.11a35.24,35.24,0,0,1-8.17-4.23,17.12,17.12,0,0,1-6.18-7.32,1.62,1.62,0,0,1,.9-2.09,1.6,1.6,0,0,1,2.08.89v0A14,14,0,0,0,153.53,43,31.52,31.52,0,0,0,161,46.61a46.16,46.16,0,0,0,16.56,2.45,31.74,31.74,0,0,0,15.66-4.4,19.28,19.28,0,0,0,5.67-5.45c.36-.54.69-1.09,1-1.68s.64-1.23.92-1.85A28.39,28.39,0,0,0,202.23,31.87ZM188.5,121l1.2-.21c-1.22-.7-2.41-1.42-3.59-2.21a16.89,16.89,0,0,1-2.28,3.62l.2-.07A32.14,32.14,0,0,1,188.5,121Zm-16.2,73.16,2.26-18-.2.06,0-1.32.36-8.3-.15-.05a33.2,33.2,0,0,1-16.57,2.23,65.74,65.74,0,0,1-8.38-1.67c-2.74-.67-5.46-1.36-8.19-2A83.42,83.42,0,0,0,125,163c-1.38,0-2.77,0-4.15.09l-2.08.13-2,.27c-1.39.13-2.73.45-4.1.7-.51.1-1,.24-1.52.37l-.35.17c-.38.18-.73.39-1.1.58a32.73,32.73,0,0,1,3.54-.61A35.84,35.84,0,0,1,127.94,166a19.6,19.6,0,0,1,6.83,3.61,17.4,17.4,0,0,1,1.4,1.48l1.14,1.48c.38.49.7,1,1.05,1.54a17.16,17.16,0,0,1,1,1.6,29.79,29.79,0,0,1,3,6.91,28.68,28.68,0,0,1,1,7.48,35.42,35.42,0,0,1-.19,3.73c-.14,1.23-.24,2.36-.5,3.7a31.33,31.33,0,0,1-2.52,7.06,51.93,51.93,0,0,1-8.2,12.19,49.3,49.3,0,0,1-5.29,5.13,48.07,48.07,0,0,1-6,4.29,42.36,42.36,0,0,1-6.61,3.28c-1.13.49-2.32.84-3.49,1.23s-2.37.69-3.58.9a45.15,45.15,0,0,1-14.66.62c-1.21-.16-2.43-.3-3.61-.56l-1.77-.35c-.46-.08-1.08-.12-1.63-.16h-.57A94.68,94.68,0,0,0,85,241a21.76,21.76,0,0,0,3.39,10,37.13,37.13,0,0,0,7.41,7.79c1.41,1.16,2.87,2.29,4.34,3.36.74.53,1.49,1,2.27,1.49a29.36,29.36,0,0,1,2-11.12A52,52,0,0,1,110.9,241a83.6,83.6,0,0,1,8.52-10c2.68-2.69,5.44-5.29,8.34-7.75.42-.38.86-.74,1.29-1.1a216.83,216.83,0,0,1,21.12-15.34A242.93,242.93,0,0,1,172.3,194.19Zm11.85-129.4a28.4,28.4,0,0,1,4.24.53c-2.7-5.6-5.17-10.56-6.26-12.74-1.5.18-3,.28-4.49.32a50.26,50.26,0,0,1-12.53-1.37,59,59,0,0,1-8.27,8.53,49.27,49.27,0,0,1-11.5,7.35,33.75,33.75,0,0,1-6.11,2c-1,1.35-1.91,2.75-2.79,4.16-1.08,1.71-2.11,3.44-3.05,5.22a62.48,62.48,0,0,0-4.77,11A39.63,39.63,0,0,0,127,96.54c2.58-1.39,5.16-2.79,7.71-4.23,1.89-1,3.78-2.11,5.67-3.18.9-5,1.83-10,4.4-13.69,3.07-4.4,10.54-9.85,16.87-9.46a9.74,9.74,0,0,1,7.43,3.58,22,22,0,0,1,3.24-2.11A22.54,22.54,0,0,1,184.15,64.79ZM178,137.36c-.13-.42-.27-.83-.39-1.24L176.2,136c-.64,0-1.28-.08-1.92-.07a20.25,20.25,0,0,0-3.74.35A15.82,15.82,0,0,0,167,137.4a10.81,10.81,0,0,0-2.76,1.87c0,.17,0,.33,0,.5a37.35,37.35,0,0,1,4-1.19A48.57,48.57,0,0,1,178,137.36ZM166.49,167.1a32.53,32.53,0,0,0,6-1.18c-3.65-1.09-7.36-2-11.07-2.89-4.72-1.07-9.48-2-14.26-2.6a122.31,122.31,0,0,0-14.43-1.12,73.9,73.9,0,0,0-9.75.52l0,0c-.86.25-1.7.51-2.53.82-1,.31-1.93.66-2.88,1l1-.14,2.14-.19c1.43-.17,2.85-.13,4.28-.19a78.66,78.66,0,0,1,16.93,2.07c2.77.61,5.51,1.32,8.24,2a80.24,80.24,0,0,0,8.13,1.73A35.33,35.33,0,0,0,166.49,167.1Zm3.65-32.83.4-.06c-.64-.54-1.28-1.08-1.95-1.6-1.26-1-2.48-2-3.8-2.81a78,78,0,0,0-8-5,79.11,79.11,0,0,0-17.43-7c-.31-.09-.61-.17-.93-.24-8.32,5.22-19,5.49-26.49,1.75-2.18-1.09-4.49-2.33-6.83-3.72-1.06.15-2.1.32-3.12.53h-.07a1,1,0,0,1-.43-1.87l1-.26c-10.69-6.76-21.87-16.72-27-30.67a140.24,140.24,0,0,0-4.65,23.24l-.06.52-.27.43q-7.41,12-15,23.82c-5.1,7.88-10.32,15.74-15.77,23.39a75.9,75.9,0,0,0-11.18,24.84,93.07,93.07,0,0,0-2.42,13.58,86.45,86.45,0,0,0-.41,13.72l0,.08a1.55,1.55,0,0,1-.26.95A107.57,107.57,0,0,0,20,221,65.1,65.1,0,0,0,18,227.8c-.29,1.15-.44,2.3-.66,3.46s-.33,2.31-.38,3.47a34.86,34.86,0,0,0,.17,6.86,24.44,24.44,0,0,0,1.62,6.52l.61,1.55.78,1.5a29.13,29.13,0,0,0,1.74,2.89,35.5,35.5,0,0,0,4.47,5.2,42.31,42.31,0,0,0,5.32,4.46,50.53,50.53,0,0,0,5.95,3.66,58.39,58.39,0,0,0,13.16,4.87,48.63,48.63,0,0,0,13.92,1.43,33.2,33.2,0,0,0,13.38-3.41h0a1.61,1.61,0,0,1,1.54,2.82,35.24,35.24,0,0,1-14.62,4.67,49.6,49.6,0,0,1-12.48-.53c1.19.61,2.38,1.2,3.6,1.76,1.61.76,3.25,1.45,4.89,2.18l0,0a1,1,0,0,1,.49,1.28,1,1,0,0,1-1.07.55,32.56,32.56,0,0,1-5.39-1.47A41,41,0,0,1,50,279.27a40.17,40.17,0,0,1-4.75-3c-.53-.38-1-.78-1.54-1.19-.42-.14-.84-.27-1.24-.42-1.21-.4-2.4-.85-3.59-1.35-.6-.25-1.21-.54-1.72-.76S36,272,35.4,271.74a53.47,53.47,0,0,1-6.57-4,46.39,46.39,0,0,1-5.95-4.92,41.23,41.23,0,0,1-5.05-6,36.22,36.22,0,0,1-2-3.4l-.9-1.77-.57-1.46-.34.16a15.23,15.23,0,0,0-2.07,1.34,19.87,19.87,0,0,0-3.57,3.53c-.27.32-.53.66-.77,1s-.5.69-.72,1.06l-.67,1.08c-.18.35-.37.68-.54,1.05a14.16,14.16,0,0,0-1.18,4.65,19.86,19.86,0,0,0,1.63,9.65,30.75,30.75,0,0,0,5.59,8.53c4.62,5.15,10.44,9.43,16.49,13.24a121.37,121.37,0,0,0,19.12,9.71,102.77,102.77,0,0,0,20.5,6.05A83.77,83.77,0,0,0,89,312.42a73.08,73.08,0,0,0,10.49-1.63l2.63-.66c.46-.12.79-.2,1.18-.33s.78-.27,1.17-.42a23.1,23.1,0,0,0,4.43-2.32,19.19,19.19,0,0,0,6.53-7.35,17.68,17.68,0,0,0,1.61-4.68,8.7,8.7,0,0,0,.14-1.81h0a26,26,0,0,1-9.19,1.53,41.56,41.56,0,0,1-8.9-1.21,42.15,42.15,0,0,1-8.34-3.09c-1.33-.66-2.6-1.39-3.86-2.18a28.51,28.51,0,0,1-3.63-2.66,1.61,1.61,0,0,1,1.91-2.57l.09.06a42.18,42.18,0,0,0,7.16,3.63,44,44,0,0,0,7.7,2.32,39.84,39.84,0,0,0,7.91.81,21.89,21.89,0,0,0,7.44-1.33,21,21,0,0,0,6.52-3.78c2-1.7,4-3.73,6-5.67s4-4,6.18-5.9c.83-.74,1.7-1.47,2.58-2.18a98.75,98.75,0,0,1-10.9.71c-7.52.06-15.34-1-22.26-4.51a38.19,38.19,0,0,1-4.91-3c-1.51-1.13-3-2.28-4.44-3.51a39.47,39.47,0,0,1-7.75-8.43A22.67,22.67,0,0,1,84,246.92a27.91,27.91,0,0,1-1.1-5.69,94.22,94.22,0,0,1-.19-10.06,20.86,20.86,0,0,0-4.25.62,13.38,13.38,0,0,0-1.72.58h0l0,.63c0,.06-.07.4-.09.63s-.07.52-.09.79c0,.55,0,1.11,0,1.69,0,1.14,0,2.3.16,3.47s.24,2.34.39,3.54l.48,3.58h0a1,1,0,0,1-1.86.49,31.89,31.89,0,0,1-1.21-3.57,34.68,34.68,0,0,1-.78-3.7,23.47,23.47,0,0,1-.27-3.86,16.21,16.21,0,0,1,.12-1.83,8.73,8.73,0,0,0-.79.71,10.9,10.9,0,0,0-2.76,5.86h0a1,1,0,0,1-1.11.79,1,1,0,0,1-.79-1.1,13,13,0,0,1,3.16-7,13.94,13.94,0,0,1,6.6-3.88,24.11,24.11,0,0,1,7.44-.83,17.76,17.76,0,0,1,2,.17l1.74.31c1.17.23,2.33.34,3.48.47a43,43,0,0,0,13.86-.72c1.13-.21,2.24-.58,3.35-.88s2.21-.72,3.26-1.19a39.87,39.87,0,0,0,6.18-3.14,44.36,44.36,0,0,0,5.61-4.11,45.7,45.7,0,0,0,5-4.87,49,49,0,0,0,7.72-11.54,28.79,28.79,0,0,0,2.27-6.4c.2-1,.32-2.27.45-3.4a32.94,32.94,0,0,0,.16-3.43,25.22,25.22,0,0,0-3.6-12.9,14.83,14.83,0,0,0-.9-1.47c-.31-.47-.61-.95-1-1.41l-1-1.37a3.84,3.84,0,0,0-.52-.59c-.18-.18-.34-.36-.53-.54a16.66,16.66,0,0,0-5.76-3,32.79,32.79,0,0,0-13.54-1.25,25,25,0,0,0-6.58,1.59c-2.18.9-4.39,1.82-6.54,2.79-4.35,1.92-8.64,4-12.84,6.16l-6.35,3.37A22.79,22.79,0,0,1,74.07,184a9,9,0,0,1-2.1.13l-1.82-.22c-1.17-.13-2.34-.26-3.5-.33a46.46,46.46,0,0,0-7,0,39.43,39.43,0,0,0-13.48,3.27,41.28,41.28,0,0,0-11.58,7.7h0a1,1,0,0,1-1.33-1.4A42.38,42.38,0,0,1,52.14,182.4a12.85,12.85,0,0,0-1.83-.55,15.65,15.65,0,0,0-4.25-.46,17.14,17.14,0,0,0-4.3.59,28.35,28.35,0,0,0-4.21,1.45l-.08,0a1,1,0,0,1-1.25-.53,1,1,0,0,1,.36-1.17c.69-.45,1.39-.89,2.12-1.3a21.24,21.24,0,0,1,2.28-1l1.19-.42,1.25-.29a10,10,0,0,1,1.24-.21,11.25,11.25,0,0,1,1.27-.15,17.59,17.59,0,0,1,5.11.46,19.37,19.37,0,0,1,2.44.81,14,14,0,0,1,2.33,1.3,1.55,1.55,0,0,1,.46.57c1.06-.17,2.13-.31,3.2-.39a50,50,0,0,1,7.34-.09c1.22.07,2.43.18,3.64.31l1.74.19a6.47,6.47,0,0,0,1.47-.12A20.55,20.55,0,0,0,80,179.1l6.29-3.42c.85-.46,1.72-.91,2.59-1.35a26.79,26.79,0,0,1-4.15-5.85,34.66,34.66,0,0,1-3.15-8.69,39.81,39.81,0,0,1-.78-9.16,21.82,21.82,0,0,1,.13-2.29l.21-2.27c.26-1.5.54-3,.86-4.47a1,1,0,0,1,1.91.24v.09c-.07,1.47-.24,2.91-.31,4.36l-.05,2.17a17.46,17.46,0,0,0,0,2.17c0,.72.07,1.43.1,2.15s.14,1.43.2,2.14a42.51,42.51,0,0,0,.66,4.24,41.05,41.05,0,0,0,2.68,8.09,20.05,20.05,0,0,0,1,1.91c.32.63.7,1.23,1.07,1.83a24.3,24.3,0,0,0,1.64,2.33q4.14-2.08,8.39-4l2.42-1.06c.35-.35.7-.69,1.08-1,.7-.63,1.44-1.19,2.18-1.76a49.51,49.51,0,0,1,4.67-2.95,73.3,73.3,0,0,1,10-4.49c1.7-.68,3.45-1.17,5.18-1.74s3.49-1,5.25-1.46,3.53-.86,5.3-1.25l.14,0c0-.41,0-.87,0-1.31,0-.65,0-1.32-.11-2a30.59,30.59,0,0,0-.7-4,34,34,0,0,0-1.25-3.9c-.48-1.28-1.06-2.53-1.67-3.77h0a.65.65,0,0,1,1.13-.62c.73,1.22,1.44,2.45,2.06,3.75a35.84,35.84,0,0,1,1.66,4,31.29,31.29,0,0,1,1.17,4.19c.15.72.26,1.45.35,2.19,0,.31.06.61.07.92l2.31-.46a68.61,68.61,0,0,0,9.21-4.21c1.49-.82,3-1.69,4.38-2.63.7-.48,1.41-1,2.09-1.45l1-.76,1.14-.79a25.07,25.07,0,0,1,4.61-2.42l-.28-1.22-.07-.33.23-.29a11.09,11.09,0,0,1,3.36-2.75A15,15,0,0,1,170.14,134.27Zm-38.4-26.16c4.82-3.44,6.61-8.88,7.8-14.6-1.11.57-2.21,1.15-3.31,1.7-3.17,1.54-6.33,3.07-9.56,4.48,0,.56,0,1.13,0,1.69a26.11,26.11,0,0,0,.63,5.78,22,22,0,0,0,.64,2.2A8.69,8.69,0,0,0,131.74,108.11ZM106.67,29c1.74-1.39,3.53-2.76,5.33-4.11-8.91,1-19.18,11-22.25,16.16a31.14,31.14,0,0,0-3.59,9.08,92.24,92.24,0,0,1,7.35-9A121.2,121.2,0,0,1,106.67,29Z" transform="translate(-0.25 -0.25)"/><path class="cls-4" d="M296.47,154a11.7,11.7,0,0,1-1.36,7l-4-3.54a7.93,7.93,0,0,0-1.55-1.13,6.84,6.84,0,0,0-.88-.41l-.79-.33-3.16-1.3-3.16-1.3c-1.07-.44-2.08-.84-3.06-1.36a25.93,25.93,0,0,1-2.83-1.67c-.93-.64-2-1.29-3-1.85a20.68,20.68,0,0,0-3.26-1.44,13.2,13.2,0,0,0-1.77-.48c-.63-.12-1.16-.15-1.74-.22l-6.81-.74L247.37,144a17.29,17.29,0,0,0,2.75-4.13,20.08,20.08,0,0,0,1.64-5.49,14.27,14.27,0,0,0,.15-3c0-.89-.11-1.8-.2-2.69a42.71,42.71,0,0,0-1.67-8.18c1.91.39,3.84.83,5.73,1.34a82.69,82.69,0,0,1,8.79,2.7,45.64,45.64,0,0,1,8.09,3.86c2.54,1.63,5.13,3.42,7.58,5.25a81.13,81.13,0,0,1,7.06,5.82,42.56,42.56,0,0,1,5.95,6.69A17.32,17.32,0,0,1,296.47,154Z" transform="translate(-0.25 -0.25)"/><path class="cls-5" d="M294.39,163a.48.48,0,0,0,.07.2s0,.07,0,.09a1.52,1.52,0,0,1-.68.34,6.83,6.83,0,0,1-2.32.05,19,19,0,0,1-2.51-.46c-.74-.18-1.48-.4-2.19-.64a24.15,24.15,0,0,0-1.58-3.28,22.58,22.58,0,0,0-2.39-3.45c-.15-.18-.31-.36-.47-.53l1.76.72,3.16,1.33.79.32a5.82,5.82,0,0,1,.66.32,5.73,5.73,0,0,1,1.2.89Z" transform="translate(-0.25 -0.25)"/><path class="cls-5" d="M294.17,165.59q-.68,2.64-1.31,5.29c-.55,2.48-1.14,5-1.66,7.44l-2.81-.3c-1-.1-1.93-.18-2.89-.26.09-1,.16-2.11.23-3.16l0,0,.12-1.14.95-8.77c.52.16,1.05.32,1.58.45a22.59,22.59,0,0,0,2.77.52A8.62,8.62,0,0,0,294.17,165.59Z" transform="translate(-0.25 -0.25)"/><path class="cls-3" d="M290.91,180.24l-4.35,5.69,0,0,0,.05a21.65,21.65,0,0,1-5.27,5.53l-1.79-.11c-6-.37-12.14-.68-18.21-.86a59.67,59.67,0,0,0-23.54-16.66s-7.91-3.13-8.61,5.07a7.37,7.37,0,0,0,1.87,5.62,53.27,53.27,0,0,1,12.22,5.71q-7.81,0-15.62.18c-9.11.17-18.2.55-27.3,1.07q-13.12.72-26.22,2l1.88-17.76a163.39,163.39,0,0,1,26.76-4.47c4.57-.42,9.15-.71,13.74-.92s9.2-.32,13.78-.29H231l.11,0h0l13.48.63,13.47.73c4.49.26,9,.55,13.45.95,2.24.18,4.47.39,6.68.66a46.17,46.17,0,0,1,6.21,1.1.9.9,0,0,0,0,.16c-.23,1.36-.45,2.71-.63,4.07l-.12.82.86.13c1.23.16,2.47.35,3.7.52Z" transform="translate(-0.25 -0.25)"/><path class="cls-2" d="M285.11,164.24l-1,7.94a50.86,50.86,0,0,0-5.7-1c-2.26-.29-4.5-.52-6.76-.72-4.5-.38-9-.64-13.5-.88s-9-.38-13.53-.51-9-.17-13.49-.22l.23-2.1.15-1.29c0-.45.09-.91.1-1.36a17,17,0,0,0-.67-5.39,16.44,16.44,0,0,0-2.36-4.9,26.12,26.12,0,0,0-6.6-6.42,23.64,23.64,0,0,0,9.11,2.62,22.82,22.82,0,0,0,11-2,17,17,0,0,0,4.11-2.81l12.74,1.64,6.78.83a12.91,12.91,0,0,1,3.18.66,21.25,21.25,0,0,1,3,1.37,31.68,31.68,0,0,1,2.81,1.8,28.79,28.79,0,0,0,3,1.82c.2.1.41.18.6.29a17.44,17.44,0,0,1,3.24,3.24,25.11,25.11,0,0,1,2.15,3.29c.36.65.68,1.33,1,2-3.27-.65-6.5-1-9.76-1.41-3.81-.41-7.63-.68-11.45-.89s-7.64-.36-11.46-.44l-5.73-.06h-5.73a.64.64,0,0,0,0,1.28h0l5.71.15,5.7.2c3.8.19,7.6.34,11.4.63s7.58.61,11.35,1C278.18,163.05,281.73,163.52,285.11,164.24Z" transform="translate(-0.25 -0.25)"/><path class="cls-4" d="M277.52,208.92a10.51,10.51,0,0,1-.54,5.14,11.76,11.76,0,0,1-3,4.32l-.2.19a55.89,55.89,0,0,0-4.42-15.3q1.83-1.76,3.76-3.39l.12-.08a22.38,22.38,0,0,1,2.53,3.94A15.58,15.58,0,0,1,277.52,208.92Z" transform="translate(-0.25 -0.25)"/><path class="cls-6" d="M279.39,192.77l-.52.32-1.08.64c-.72.44-1.43.87-2.11,1.35-1.4.93-2.72,1.94-4,3s-2.28,1.92-3.38,2.92a54.4,54.4,0,0,0-5.6-8.68l5.83.13C272.14,192.46,275.76,192.64,279.39,192.77Z" transform="translate(-0.25 -0.25)"/><path class="cls-4" d="M264.7,223.17l-.23,0a15.68,15.68,0,0,1-5.45-.31,20.25,20.25,0,0,1-4.25-1.43q2.44-3.85,5.19-7.5c.61-.82,1.25-1.61,1.88-2.4A42.14,42.14,0,0,1,264.7,223.17Z" transform="translate(-0.25 -0.25)"/><path class="cls-6" d="M260.68,209q-1.43,1.69-2.77,3.43-3,3.94-5.71,8.11c-.92,1.38-1.75,2.81-2.62,4.21a42.36,42.36,0,0,1-2.65,3.94,35,35,0,0,1-14.7,11.44l-.07,0-.1.06c-3.18,1.72-6.53,3.33-9.9,4.83-1.67.77-3.38,1.47-5.07,2.21s-3.41,1.42-5.14,2.08c-6.88,2.7-13.86,5.14-20.95,7.25s-14.22,4.05-21.45,5.64-14.53,3-21.82,4.27a143,143,0,0,1-21.9,2.49c-7.27.11-14.65-.85-21.09-4.05l-1-.54A27.82,27.82,0,0,1,106,253.1a50.56,50.56,0,0,1,6.39-11,109.94,109.94,0,0,1,18-18.39,223.88,223.88,0,0,1,20.84-15.34c3.59-2.38,7.26-4.66,11-6.88,3.53-2.12,7.11-4.19,10.73-6.13l.32,0c9-.8,18.12-1.36,27.18-1.86s18.17-.8,27.24-1c6.14-.17,12.27-.24,18.41-.26A45.54,45.54,0,0,1,260.68,209Z" transform="translate(-0.25 -0.25)"/><path class="cls-4" d="M247.76,129.19c1.16,6.22-1.78,12.81-7.28,15.45a19.2,19.2,0,0,1-9.16,1.75,20.41,20.41,0,0,1-9-2.7,28.48,28.48,0,0,1-7.41-6.3,45.07,45.07,0,0,1-3-4l-2.78-4.32c-3.68-5.83-7.72-11.76-13.13-16.32a1,1,0,0,0-1.34,1.49,53.63,53.63,0,0,1,6.61,7.65c.68.95,1.32,1.92,2,2.9-.83-.38-1.66-.76-2.47-1.18-1.84-.89-3.65-1.84-5.44-2.82A95.09,95.09,0,0,1,185,114.23a66.5,66.5,0,0,1-9-8.06l-2-2.29a10.59,10.59,0,0,1-.93-1.19l-.87-1.23A54.11,54.11,0,0,1,169,96.33l0-.09a.76.76,0,0,0-.9-.28.74.74,0,0,0-.42,1,39.67,39.67,0,0,0,6.36,11,54.93,54.93,0,0,0,9.25,8.72l1.07.75a24.81,24.81,0,0,1-2.9,3.44,27.86,27.86,0,0,1-4.28,3.43c-.8.46-1.55,1-2.39,1.36-.42.21-.82.44-1.24.64s-.86.36-1.29.55a11.21,11.21,0,0,1-1.29.52l-1.32.49c-.79.28-1.59.51-2.39.78-.32-.26-.64-.53-1-.78l-1.95-1.46-2-1.38c-1.32-1-2.75-1.74-4.13-2.61a78,78,0,0,0-16.64-7.15c4.7-4,8.24-9.93,9.3-18a51.92,51.92,0,0,1,2.56-11.35c.91-.56,1.82-1.1,2.72-1.67,3.22-2,6.41-4.15,9.46-6.5,1.52-1.19,3-2.45,4.44-3.79a20.83,20.83,0,0,1,4.15-3,19.92,19.92,0,0,1,9.9-2.39,26.31,26.31,0,0,1,10.26,2.32,27.56,27.56,0,0,1,4.59,2.5,44.54,44.54,0,0,0-4.59-1.1,1.28,1.28,0,0,0-.51,2.51l.08,0a45.82,45.82,0,0,1,4.77,1.42c1.59.55,3.14,1.19,4.69,1.87a71.25,71.25,0,0,1,8.93,4.74,73.19,73.19,0,0,1,8.24,5.86c1.33,1,2.57,2.17,3.81,3.3s2.51,2.36,3.74,3.54c2.46,2.36,4.86,4.77,7.08,7.28a62.93,62.93,0,0,1,6,8A43.54,43.54,0,0,1,247.76,129.19Z" transform="translate(-0.25 -0.25)"/><path class="cls-2" d="M229.8,165.26l-.15,1.29-.21,1.8c-4.38,0-8.73,0-13.08.2-4.62.19-9.24.46-13.84.86s-9.22.92-13.8,1.64c-4.14.7-8.28,1.54-12.35,2.65l.26-6.89q6.8-1,13.59-1.85c2.4-.29,4.8-.59,7.19-.84s4.8-.52,7.18-.6h0a.46.46,0,0,0,0-.91c-2.45,0-4.86.18-7.29.35s-4.82.38-7.23.6q-7.22.63-14.42,1.38c-4.56-1.44-9.15-2.61-13.79-3.64s-9.58-1.93-14.43-2.55a108.54,108.54,0,0,0-14.64-1c-.92,0-1.84,0-2.76.07.22-.06.44-.11.66-.18,1.73-.38,3.46-.81,5.21-1.17l5.24-1,.14,0,.09,0a70.24,70.24,0,0,0,9.7-4.52c1.55-.88,3.08-1.8,4.57-2.8.73-.51,1.47-1,2.18-1.56l1.06-.84,1-.72a22.7,22.7,0,0,1,4.33-2.39A33.11,33.11,0,0,1,169,141a48.58,48.58,0,0,1,8.57-1.55h0l-.22.46-.11.23-.07.15a1,1,0,0,0,0,.64c3,.79,6.06,1.62,9.21,2.41s6.31,1.57,9.49,2.27l.7.15a.63.63,0,0,0,.5.09c2.17-.6,4.31-1.21,6.46-1.83l3.05-.91a31.88,31.88,0,0,1,9.05,2.44,28.12,28.12,0,0,1,8.38,5.5,26.07,26.07,0,0,1,3.3,3.76,14.53,14.53,0,0,1,2.09,4.41,15.38,15.38,0,0,1,.57,4.86C229.89,164.44,229.84,164.85,229.8,165.26Z" transform="translate(-0.25 -0.25)"/><path class="cls-2" d="M218.92,145.49c-.93-.48-1.85-.94-2.8-1.33a33.28,33.28,0,0,0-6.63-2l.38-.12.73-.21-.07-.77c0-.43-.09-.86-.15-1.3.67.15,1.37.3,2.07.43l.85.13A31.68,31.68,0,0,0,218.92,145.49Z" transform="translate(-0.25 -0.25)"/><path class="cls-4" d="M211.53,138.09a7.73,7.73,0,0,0-1.52,0c-.11-.39-.23-.79-.38-1.18a9.91,9.91,0,0,0-2.43-3.65,10.54,10.54,0,0,0-3.71-2.25,19.89,19.89,0,0,0-4.08-1c-1.36-.19-2.71-.3-4-.36a20.75,20.75,0,0,0-4.16.19,20.26,20.26,0,0,0-4,1.07c-.41.15-.81.33-1.22.51-.2.06-.4.11-.6.19a11.07,11.07,0,0,0-3.58,2.18,16.63,16.63,0,0,0-2.47,2.71c-.08-.45-.15-.91-.24-1.36l-.1-.52-.55-.1-2-.39c-.69-.07-1.37-.18-2.07-.19-.36,0-.71,0-1.06,0q-1.94-1.87-4-3.63l.94-.13a27.29,27.29,0,0,0,2.95-.79,24.47,24.47,0,0,0,5.57-2.63,20.86,20.86,0,0,0,1.69-1.23c1.39-.53,2.78-1,4.19-1.48s2.83-.86,4.25-1.25c1-.26,2.06-.5,3.08-.73.7.36,1.39.74,2.11,1.08a64.16,64.16,0,0,0,10.68,4.1c.66,1.08,1.32,2.17,2,3.27.88,1.48,1.73,3,2.68,4.47C210.06,136.05,210.78,137.08,211.53,138.09Z" transform="translate(-0.25 -0.25)"/><path class="cls-7" d="M208.55,140.51l-5.6,1.87c-2,.67-4,1.36-6,2.07a17.42,17.42,0,0,0-.94-7.86,9.52,9.52,0,0,0-2.43-3.55,7.5,7.5,0,0,0-1.83-1.25c-.14-.07-.31-.13-.47-.2l.12,0a19.31,19.31,0,0,1,3.8,0c1.33.12,2.63.21,3.9.41a12.41,12.41,0,0,1,6.72,2.78A9.41,9.41,0,0,1,208.55,140.51Z" transform="translate(-0.25 -0.25)"/><path class="cls-6" d="M194.2,137.33a15.71,15.71,0,0,1,.88,6.11c-2.55-.54-5.11-1-7.72-1.51l-8.83-1.55.17-.3.51-.8a.24.24,0,0,1,.06-.09,1,1,0,0,0,.68-.9s0,0,0,0c.12-.17.23-.35.36-.52a18,18,0,0,1,2.58-2.65,8,8,0,0,1,6.48-2l.85.19.22.05a.53.53,0,0,1,.15.05l.37.16a5.65,5.65,0,0,1,1.35,1A7.6,7.6,0,0,1,194.2,137.33Z" transform="translate(-0.25 -0.25)"/><path class="cls-4" d="M203,24.11a18.72,18.72,0,0,1-.75,7.76,28.39,28.39,0,0,1-1.45,3.81c-.28.62-.61,1.23-.92,1.85s-.65,1.14-1,1.68a19.28,19.28,0,0,1-5.67,5.45,31.74,31.74,0,0,1-15.66,4.4A46.16,46.16,0,0,1,161,46.61,31.52,31.52,0,0,1,153.53,43a14,14,0,0,1-5.13-5.75v0a1.6,1.6,0,0,0-2.08-.89,1.62,1.62,0,0,0-.9,2.09,17.12,17.12,0,0,0,6.18,7.32,35.24,35.24,0,0,0,8.17,4.23c1.14.41,2.31.77,3.48,1.11a96.51,96.51,0,0,1-8.06,7,56.39,56.39,0,0,1-11.06,6.67,30.18,30.18,0,0,1-12.25,2.83,24.84,24.84,0,0,1-6.22-.88,27.92,27.92,0,0,1-5.91-2.47h0a.73.73,0,0,0-.94.22.74.74,0,0,0,.16,1,26,26,0,0,0,6,3.33,24.12,24.12,0,0,0,6.84,1.44,26.3,26.3,0,0,0,4.35-.17A67.51,67.51,0,0,0,131,77.48a59,59,0,0,0-5.23,11.41,40.18,40.18,0,0,0-1.48,6.17,30.16,30.16,0,0,0-.42,6.37,27.94,27.94,0,0,0,1,6.36c.18.57.38,1.12.6,1.67-5.33-.13-13.24-2.55-22.23-10.59-9.77-8.73-16.91-15.34-18-33.53-.1-1.53-.16-3.08-.17-4.68A90.08,90.08,0,0,1,97.15,44.42a119.78,119.78,0,0,1,12.64-11.57,167.48,167.48,0,0,1,13.94-10.21A116.22,116.22,0,0,1,154.67,8a75.09,75.09,0,0,1,16.69-3,52.78,52.78,0,0,1,8.35.18,26.15,26.15,0,0,1,7.79,1.87c5,2.29,9.74,5.52,12.72,9.85A16.46,16.46,0,0,1,203,24.11Z" transform="translate(-0.25 -0.25)"/><path class="cls-5" d="M174.56,176.17l-2.26,18a242.93,242.93,0,0,0-22.13,12.64,216.83,216.83,0,0,0-21.12,15.34c-.43.36-.87.72-1.29,1.1l-1.16-1.35a49.3,49.3,0,0,0,5.29-5.13,51.93,51.93,0,0,0,8.2-12.19,31.33,31.33,0,0,0,2.52-7.06c.26-1.34.36-2.47.5-3.7a35.42,35.42,0,0,0,.19-3.73,28.68,28.68,0,0,0-1-7.48,29.79,29.79,0,0,0-3-6.91,17.16,17.16,0,0,0-1-1.6c-.35-.51-.67-1.05-1.05-1.54l-1.14-1.48a17.4,17.4,0,0,0-1.4-1.48,19.6,19.6,0,0,0-6.83-3.61,35.84,35.84,0,0,0-14.79-1.32,32.73,32.73,0,0,0-3.54.61c.37-.19.72-.4,1.1-.58l.35-.17c.5-.13,1-.27,1.52-.37,1.37-.25,2.71-.57,4.1-.7l2-.27,2.08-.13c1.38-.13,2.77-.05,4.15-.09a83.42,83.42,0,0,1,16.52,2.18c2.73.59,5.45,1.28,8.19,2a65.74,65.74,0,0,0,8.38,1.67,33.2,33.2,0,0,0,16.57-2.23l.15.05-.36,8.3,0,1.32Z" transform="translate(-0.25 -0.25)"/><path class="cls-6" d="M177.64,136.12c.12.41.26.82.39,1.24a48.57,48.57,0,0,0-9.68,1.22,37.35,37.35,0,0,0-4,1.19c0-.17,0-.33,0-.5A10.81,10.81,0,0,1,167,137.4a15.82,15.82,0,0,1,3.52-1.17,20.25,20.25,0,0,1,3.74-.35c.64,0,1.28.07,1.92.07Z" transform="translate(-0.25 -0.25)"/><path class="cls-5" d="M172.54,165.92a32.53,32.53,0,0,1-6,1.18,35.33,35.33,0,0,1-8.22-.13,80.24,80.24,0,0,1-8.13-1.73c-2.73-.69-5.47-1.4-8.24-2A78.66,78.66,0,0,0,125,161.16c-1.43.06-2.85,0-4.28.19l-2.14.19-1,.14c1-.35,1.9-.7,2.88-1,.83-.31,1.67-.57,2.53-.82l0,0a73.9,73.9,0,0,1,9.75-.52,122.31,122.31,0,0,1,14.43,1.12c4.78.64,9.54,1.53,14.26,2.6C165.18,163.88,168.89,164.83,172.54,165.92Z" transform="translate(-0.25 -0.25)"/><path class="cls-4" d="M170.54,134.21l-.4.06a15,15,0,0,0-4,1.45,11.09,11.09,0,0,0-3.36,2.75l-.23.29.07.33.28,1.22a25.07,25.07,0,0,0-4.61,2.42l-1.14.79-1,.76c-.68.49-1.39,1-2.09,1.45-1.42.94-2.89,1.81-4.38,2.63a68.61,68.61,0,0,1-9.21,4.21l-2.31.46c0-.31-.05-.61-.07-.92-.09-.74-.2-1.47-.35-2.19a31.29,31.29,0,0,0-1.17-4.19,35.84,35.84,0,0,0-1.66-4c-.62-1.3-1.33-2.53-2.06-3.75a.65.65,0,0,0-1.13.62h0c.61,1.24,1.19,2.49,1.67,3.77a34,34,0,0,1,1.25,3.9,30.59,30.59,0,0,1,.7,4c.06.66.11,1.33.11,2,0,.44,0,.9,0,1.31l-.14,0c-1.77.39-3.53.83-5.3,1.25s-3.51.95-5.25,1.46-3.48,1.06-5.18,1.74a73.3,73.3,0,0,0-10,4.49,49.51,49.51,0,0,0-4.67,2.95c-.74.57-1.48,1.13-2.18,1.76-.38.33-.73.67-1.08,1l-2.42,1.06q-4.24,1.89-8.39,4A24.3,24.3,0,0,1,89.17,171c-.37-.6-.75-1.2-1.07-1.83a20.05,20.05,0,0,1-1-1.91,41.05,41.05,0,0,1-2.68-8.09,42.51,42.51,0,0,1-.66-4.24c-.06-.71-.19-1.41-.2-2.14s-.06-1.43-.1-2.15a17.46,17.46,0,0,1,0-2.17l.05-2.17c.07-1.45.24-2.89.31-4.36v-.09A1,1,0,0,0,82,141.6c-.32,1.47-.6,3-.86,4.47l-.21,2.27a21.82,21.82,0,0,0-.13,2.29,39.81,39.81,0,0,0,.78,9.16,34.66,34.66,0,0,0,3.15,8.69,26.79,26.79,0,0,0,4.15,5.85c-.87.44-1.74.89-2.59,1.35L80,179.1a20.55,20.55,0,0,1-6.29,2.33,6.47,6.47,0,0,1-1.47.12l-1.74-.19c-1.21-.13-2.42-.24-3.64-.31a50,50,0,0,0-7.34.09c-1.07.08-2.14.22-3.2.39a1.55,1.55,0,0,0-.46-.57,14,14,0,0,0-2.33-1.3,19.37,19.37,0,0,0-2.44-.81,17.59,17.59,0,0,0-5.11-.46,11.25,11.25,0,0,0-1.27.15,10,10,0,0,0-1.24.21l-1.25.29-1.19.42a21.24,21.24,0,0,0-2.28,1c-.73.41-1.43.85-2.12,1.3a1,1,0,0,0-.36,1.17,1,1,0,0,0,1.25.53l.08,0A28.35,28.35,0,0,1,41.76,182a17.14,17.14,0,0,1,4.3-.59,15.65,15.65,0,0,1,4.25.46,12.85,12.85,0,0,1,1.83.55,42.38,42.38,0,0,0-18.87,10.77,1,1,0,0,0,1.33,1.4h0a41.28,41.28,0,0,1,11.58-7.7,39.43,39.43,0,0,1,13.48-3.27,46.46,46.46,0,0,1,7,0c1.16.07,2.33.2,3.5.33l1.82.22a9,9,0,0,0,2.1-.13,22.79,22.79,0,0,0,7.11-2.52l6.35-3.37c4.2-2.2,8.49-4.24,12.84-6.16,2.15-1,4.36-1.89,6.54-2.79a25,25,0,0,1,6.58-1.59A32.79,32.79,0,0,1,127,168.82a16.66,16.66,0,0,1,5.76,3c.19.18.35.36.53.54a3.84,3.84,0,0,1,.52.59l1,1.37c.35.46.65.94,1,1.41a14.83,14.83,0,0,1,.9,1.47,25.22,25.22,0,0,1,3.6,12.9,32.94,32.94,0,0,1-.16,3.43c-.13,1.13-.25,2.4-.45,3.4a28.79,28.79,0,0,1-2.27,6.4,49,49,0,0,1-7.72,11.54,45.7,45.7,0,0,1-5,4.87,44.36,44.36,0,0,1-5.61,4.11A39.87,39.87,0,0,1,113,227c-1,.47-2.17.8-3.26,1.19s-2.22.67-3.35.88a43,43,0,0,1-13.86.72c-1.15-.13-2.31-.24-3.48-.47L87.3,229a17.76,17.76,0,0,0-2-.17,24.11,24.11,0,0,0-7.44.83,13.94,13.94,0,0,0-6.6,3.88,13,13,0,0,0-3.16,7,1,1,0,0,0,.79,1.1,1,1,0,0,0,1.11-.79h0A10.9,10.9,0,0,1,72.82,235a8.73,8.73,0,0,1,.79-.71,16.21,16.21,0,0,0-.12,1.83,23.47,23.47,0,0,0,.27,3.86,34.68,34.68,0,0,0,.78,3.7,31.89,31.89,0,0,0,1.21,3.57,1,1,0,0,0,1.86-.49h0l-.48-3.58c-.15-1.2-.3-2.37-.39-3.54s-.15-2.33-.16-3.47c0-.58,0-1.14,0-1.69,0-.27.05-.54.09-.79s.09-.57.09-.63l0-.63h0a13.38,13.38,0,0,1,1.72-.58,20.86,20.86,0,0,1,4.25-.62,94.22,94.22,0,0,0,.19,10.06,27.91,27.91,0,0,0,1.1,5.69,22.67,22.67,0,0,0,2.46,5.31,39.47,39.47,0,0,0,7.75,8.43c1.45,1.23,2.93,2.38,4.44,3.51a38.19,38.19,0,0,0,4.91,3c6.92,3.52,14.74,4.57,22.26,4.51a98.75,98.75,0,0,0,10.9-.71c-.88.71-1.75,1.44-2.58,2.18-2.14,1.93-4.17,3.91-6.18,5.9s-4,4-6,5.67a21,21,0,0,1-6.52,3.78,21.89,21.89,0,0,1-7.44,1.33,39.84,39.84,0,0,1-7.91-.81,44,44,0,0,1-7.7-2.32,42.18,42.18,0,0,1-7.16-3.63l-.09-.06a1.61,1.61,0,0,0-1.91,2.57,28.51,28.51,0,0,0,3.63,2.66c1.26.79,2.53,1.52,3.86,2.18a42.15,42.15,0,0,0,8.34,3.09,41.56,41.56,0,0,0,8.9,1.21,26,26,0,0,0,9.19-1.53h0a8.7,8.7,0,0,1-.14,1.81,17.68,17.68,0,0,1-1.61,4.68,19.19,19.19,0,0,1-6.53,7.35,23.1,23.1,0,0,1-4.43,2.32c-.39.15-.78.3-1.17.42s-.72.21-1.18.33l-2.63.66A73.08,73.08,0,0,1,89,312.42a83.77,83.77,0,0,1-21.2-1.12,102.77,102.77,0,0,1-20.5-6.05,121.37,121.37,0,0,1-19.12-9.71c-6.05-3.81-11.87-8.09-16.49-13.24a30.75,30.75,0,0,1-5.59-8.53,19.86,19.86,0,0,1-1.63-9.65,14.16,14.16,0,0,1,1.18-4.65c.17-.37.36-.7.54-1.05l.67-1.08c.22-.37.48-.71.72-1.06s.5-.69.77-1a19.87,19.87,0,0,1,3.57-3.53A15.23,15.23,0,0,1,14,250.4l.34-.16.57,1.46.9,1.77a36.22,36.22,0,0,0,2,3.4,41.23,41.23,0,0,0,5.05,6,46.39,46.39,0,0,0,5.95,4.92,53.47,53.47,0,0,0,6.57,4c.58.29,1.15.57,1.76.84s1.12.51,1.72.76c1.19.5,2.38,1,3.59,1.35.4.15.82.28,1.24.42.5.41,1,.81,1.54,1.19a40.17,40.17,0,0,0,4.75,3,41,41,0,0,0,5.12,2.26A32.56,32.56,0,0,0,60.51,283a1,1,0,0,0,1.07-.55,1,1,0,0,0-.49-1.28l0,0c-1.64-.73-3.28-1.42-4.89-2.18-1.22-.56-2.41-1.15-3.6-1.76a49.6,49.6,0,0,0,12.48.53,35.24,35.24,0,0,0,14.62-4.67,1.61,1.61,0,0,0-1.54-2.82h0a33.2,33.2,0,0,1-13.38,3.41,48.63,48.63,0,0,1-13.92-1.43,58.39,58.39,0,0,1-13.16-4.87,50.53,50.53,0,0,1-5.95-3.66,42.31,42.31,0,0,1-5.32-4.46,35.5,35.5,0,0,1-4.47-5.2,29.13,29.13,0,0,1-1.74-2.89l-.78-1.5-.61-1.55a24.44,24.44,0,0,1-1.62-6.52,34.86,34.86,0,0,1-.17-6.86c.05-1.16.25-2.31.38-3.47s.37-2.31.66-3.46A65.1,65.1,0,0,1,20,221a107.57,107.57,0,0,1,5.55-13.15,1.55,1.55,0,0,0,.26-.95l0-.08a86.45,86.45,0,0,1,.41-13.72,93.07,93.07,0,0,1,2.42-13.58,75.9,75.9,0,0,1,11.18-24.84c5.45-7.65,10.67-15.51,15.77-23.39s10.1-15.82,15-23.82l.27-.43.06-.52a140.24,140.24,0,0,1,4.65-23.24c5.11,14,16.29,23.91,27,30.67l-1,.26a1,1,0,0,0,.43,1.87H102c1-.21,2.06-.38,3.12-.53,2.34,1.39,4.65,2.63,6.83,3.72,7.46,3.74,18.17,3.47,26.49-1.75.32.07.62.15.93.24a79.11,79.11,0,0,1,17.43,7,78,78,0,0,1,8,5c1.32.86,2.54,1.86,3.8,2.81C169.26,133.13,169.9,133.67,170.54,134.21Z" transform="translate(-0.25 -0.25)"/><path class="cls-5" d="M126.6,221.92l1.16,1.35c-2.9,2.46-5.66,5.06-8.34,7.75a83.6,83.6,0,0,0-8.52,10,52,52,0,0,0-6.43,11.51,29.36,29.36,0,0,0-2,11.12c-.78-.46-1.53-1-2.27-1.49-1.47-1.07-2.93-2.2-4.34-3.36A37.13,37.13,0,0,1,88.41,251,21.76,21.76,0,0,1,85,241a94.68,94.68,0,0,1-.34-9.86h.57c.55,0,1.17.08,1.63.16l1.77.35c1.18.26,2.4.4,3.61.56a45.15,45.15,0,0,0,14.66-.62c1.21-.21,2.39-.59,3.58-.9s2.36-.74,3.49-1.23a42.36,42.36,0,0,0,6.61-3.28A48.07,48.07,0,0,0,126.6,221.92Z" transform="translate(-0.25 -0.25)"/><path class="cls-4" d="M139.54,93.51c-1.19,5.72-3,11.16-7.8,14.6a8.69,8.69,0,0,1-3.85,1.25,22,22,0,0,1-.64-2.2,26.11,26.11,0,0,1-.63-5.78c0-.56,0-1.13,0-1.69,3.23-1.41,6.39-2.94,9.56-4.48C137.33,94.66,138.43,94.08,139.54,93.51Z" transform="translate(-0.25 -0.25)"/><path class="cls-8" d="M511.79,122.28l-6.22-3.34a.3.3,0,0,0-.39.12l-2.28,4.26a.27.27,0,0,0,.12.38l6.21,3.34a.3.3,0,0,0,.39-.11l2.28-4.26A.28.28,0,0,0,511.79,122.28Z" transform="translate(-0.25 -0.25)"/><path class="cls-8" d="M496.28,113.94l-6.22-3.34a.28.28,0,0,0-.38.12L487.39,115a.27.27,0,0,0,.11.38l6.22,3.34a.28.28,0,0,0,.38-.11l2.29-4.26A.29.29,0,0,0,496.28,113.94Z" transform="translate(-0.25 -0.25)"/></g></g></svg>