<svg xmlns="http://www.w3.org/2000/svg" viewBox="0 0 110.76 92.97"><defs><style>.cls-1{fill:blue;}</style></defs><title>hamb_blue</title><g id="Layer_2" data-name="Layer 2"><g id="Layer_1-2" data-name="Layer 1"><path class="cls-1" d="M107.93,70H2.83A2.83,2.83,0,0,0,0,72.8V73A19.93,19.93,0,0,0,19.93,93H90.84A19.92,19.92,0,0,0,110.76,73V72.8A2.83,2.83,0,0,0,107.93,70Z"/><path class="cls-1" d="M91.16,0H19.61A19.61,19.61,0,0,0,0,19.61v.56A2.83,2.83,0,0,0,2.83,23h105.1a2.83,2.83,0,0,0,2.83-2.83v-.56A19.6,19.6,0,0,0,91.16,0Z"/><rect class="cls-1" y="34.93" width="110.76" height="23" rx="2.83" ry="2.83"/></g></g></svg>